<svg width="82" height="26" xmlns="http://www.w3.org/2000/svg"><g fill="#FFFFFE" fill-rule="evenodd"><path d="M49.776 18.97l.001-1.356c0-.468.046-.844.046-.844h-.045c-.587 1.243-2.108 2.482-4.145 2.482-2.552 0-4.145-1.288-4.147-4.542V9.394h-3.69v4.825c0 1.966 1.545 2.246 2.365 2.248.328 0 .539-.048.539-.048l-.002 2.598s-.35.072-.91.071c-1.665 0-4.967-.491-4.968-4.495l.001-5.199h-1.545V7.028l1.614.001.001-3.255h2.905l-.001 3.255h6.667v7.072c0 1.451.373 2.434 1.85 2.435 2.153 0 3.348-1.897 3.348-4.028v-5.48h2.975v11.943h-2.859m-40.09.281c-5.08 0-8.593-3.77-8.592-8.665 0-4.822 3.65-8.522 8.546-8.521 4.051-.002 6.136 2.271 6.136 2.271l-1.453 2.248S12.426 4.829 9.78 4.828c-3.513 0-5.575 2.623-5.577 5.713.004 3.161 2.136 5.949 5.6 5.948 2.88 0 4.824-2.108 4.824-2.108l1.593 2.178s-2.295 2.694-6.535 2.693m15.185-.28v-1.359c-.001-.468.045-.842.045-.842l-.046-.001c-.584 1.242-2.105 2.482-4.145 2.483-2.554-.001-4.146-1.288-4.145-4.542V7.03h2.975l-.001 7.072c0 1.451.373 2.435 1.85 2.435 2.154 0 3.349-1.898 3.349-4.028V7.03l2.972.001.002 11.942h-2.857m7.852.115c-1.639 0-3.678-.42-3.675-3.841l-.002-12.9 2.952-.001v12.457c-.002 1.31.443 1.64 1.218 1.64.232 0 .444-.024.444-.024v2.599s-.445.07-.937.07m24.475-4.846v4.73h-2.975L54.22 7.03h2.86l-.002 2.061a7.65 7.65 0 01-.046.843h.047c.538-1.71 1.967-3.068 3.793-3.068.281-.001.54.047.54.047L61.41 9.84s-.305-.048-.702-.047c-1.265 0-2.693.726-3.257 2.504-.186.584-.257 1.24-.256 1.945M80 15.452c-.135.127-.29.227-.417.287a.744.744 0 01-.302.072.431.431 0 01-.166-.029c-.142-.057-.225-.203-.227-.204-.388-.627-.86-.887-1.125-.99.002.08.004.177.003.29 0 .963-.138 3.065-1.266 4.856-.939 1.574-2.352 2.763-4.079 3.528a8.404 8.404 0 01-3.511.741h-.001c-2.305.001-4.448-.844-5.944-1.695-1.204-.673-2.656-2.11-3.539-3.234.15.609.53 1.572 1.42 2.249.624.475 1.138.692 1.351.77.071.023.18.055.18.055l.031.074c0 .009.165.385.17.69a.462.462 0 01-.055.229.286.286 0 01-.25.136h-.031c-.197-.02-.554-.14-1.014-.378a6.267 6.267 0 01-1.49-1.084c-1.29-1.27-1.282-2.798-1.288-3.21v-.014c.002-.203.09-.431.192-.647.108-.214.213-.394.327-.494a.257.257 0 01.18-.074c.146.009.214.093.285.166.073.077.147.174.237.284.604.725 1.837 2.289 3.732 3.438a9.863 9.863 0 005.655 1.423c1.944-.11 3.484-.808 4.944-2.226 1.8-1.747 2.069-4.09 2.067-5.302 0-.246-.012-.444-.022-.582l-.005-.06c-.358.017-.571.041-.571.041a1.2 1.2 0 01-.161.012.382.382 0 01-.263-.09.394.394 0 01-.131-.305.543.543 0 01.023-.162c.034-.113.076-.23.152-.334a.54.54 0 01.343-.214c.645-.112 1.129-.163 1.558-.163.381 0 .718.04 1.082.106 1.041.192 1.828.743 2.146 1.373a.41.41 0 01.04.18c-.003.21-.128.362-.26.49"/><path d="M71.492 11.503c-.002-3.021-1.828-4.753-4.964-4.754-2.835 0-4.685 1.475-4.685 1.475l1.124 2.13s1.568-1.146 3.278-1.147c1.311 0 2.295.539 2.295 2.108l.001.164h-.4c-1.943 0-7.071.256-7.07 4.049 0 2.39 1.92 3.724 4.051 3.724 2.716.002 3.654-2.106 3.628-2.108h.048s-.048.375-.048.844l.001.985 2.741-.001v-7.47zm-5.621 5.43c-1.217 0-1.804-.748-1.804-1.545.001-1.662 2.459-1.872 3.98-1.872h.517v.28c0 1.452-1.126 3.138-2.693 3.138z"/></g></svg>